<svg width="221" height="156" viewBox="0 0 221 156" fill="none" xmlns="http://www.w3.org/2000/svg">
<path d="M102.833 144.333L210.5 144.648" stroke="url(#paint0_linear_1384_12)" stroke-width="21" stroke-linecap="round" stroke-linejoin="round"/>
<path d="M10.5 141L74.5 77L10.5 13" stroke="url(#paint1_linear_1384_12)" stroke-width="21" stroke-linecap="round" stroke-linejoin="round"/>
<path d="M168.733 79.8193H168.369C164.874 90.2816 158.029 95.5127 147.835 95.5127C141.33 95.5127 136.087 93.0796 132.107 88.2135C128.126 83.2986 126.136 76.7049 126.136 68.4324C126.136 57.4835 128.854 48.3838 134.291 41.1332C139.777 33.8826 146.985 30.2573 155.917 30.2573C159.316 30.2573 162.35 31.2062 165.019 33.104C167.689 34.9531 169.413 37.1916 170.189 39.8193H170.408C170.553 38.4568 170.917 35.6587 171.5 31.4251H183.587C181.306 57.1186 180.165 70.2086 180.165 70.6952C180.165 80.3302 182.665 85.1478 187.665 85.1478C192.228 85.1478 196.015 82.4714 199.024 77.1186C202.034 71.7171 203.539 64.7341 203.539 56.1697C203.539 43.5176 199.461 33.2013 191.306 25.2208C183.199 17.1916 171.937 13.177 157.519 13.177C143.684 13.177 132.228 18.0188 123.15 27.7025C114.073 37.3862 109.534 49.503 109.534 64.0529C109.534 78.4081 113.903 89.9896 122.641 98.7974C131.379 107.605 143.15 112.009 157.956 112.009C169.607 112.009 179.583 110.014 187.883 106.024V117.265C179.388 120.866 168.782 122.666 156.063 122.666C138.199 122.666 123.806 117.313 112.883 106.608C101.961 95.902 96.5 81.8874 96.5 64.5638C96.5 46.7536 102.277 31.9847 113.83 20.2573C125.383 8.52976 140.141 2.66602 158.102 2.66602C174.947 2.66602 188.879 7.58086 199.898 17.4105C210.966 27.2402 216.5 40.0626 216.5 55.8777C216.5 67.4592 213.49 76.9726 207.471 84.4178C201.5 91.8144 194.194 95.5127 185.553 95.5127C174.388 95.5127 168.782 90.2816 168.733 79.8193ZM157.155 40.6222C151.816 40.6222 147.495 43.25 144.194 48.5054C140.942 53.7609 139.316 60.3059 139.316 68.1405C139.316 73.3959 140.408 77.5565 142.592 80.6222C144.825 83.6393 147.786 85.1478 151.476 85.1478C156.816 85.1478 161.039 82.3984 164.146 76.8996C167.252 71.3521 168.806 64.0285 168.806 54.9288C168.806 45.3911 164.922 40.6222 157.155 40.6222Z" fill="url(#paint2_linear_1384_12)"/>
<defs>
<linearGradient id="paint0_linear_1384_12" x1="25.0743" y1="144.105" x2="210.5" y2="144.648" gradientUnits="userSpaceOnUse">
<stop stop-color="#60A5FA"/>
<stop offset="1" stop-color="#C084FC"/>
</linearGradient>
<linearGradient id="paint1_linear_1384_12" x1="5.16667" y1="77" x2="137" y2="76.666" gradientUnits="userSpaceOnUse">
<stop stop-color="#60A5FA"/>
<stop offset="1" stop-color="#C084FC"/>
</linearGradient>
<linearGradient id="paint2_linear_1384_12" x1="13.5" y1="62.666" x2="222.5" y2="62.666" gradientUnits="userSpaceOnUse">
<stop stop-color="#60A5FA"/>
<stop offset="1" stop-color="#C084FC"/>
</linearGradient>
</defs>
</svg>
