<svg width="30" height="30" viewBox="0 0 30 30" fill="none" xmlns="http://www.w3.org/2000/svg">
<rect width="30" height="30" rx="6" fill="#020618"/>
<path d="M13.7202 23.1318L27.246 23.1715" stroke="url(#paint0_linear_1354_49)" stroke-width="2.5" stroke-linecap="round" stroke-linejoin="round"/>
<path d="M2.12061 22.7131L10.1607 14.6729L2.12061 6.63281" stroke="url(#paint1_linear_1354_49)" stroke-width="2.5" stroke-linecap="round" stroke-linejoin="round"/>
<path d="M21.9992 15.1535H21.9535C21.5144 16.4678 20.6545 17.125 19.3739 17.125C18.5567 17.125 17.898 16.8193 17.398 16.208C16.8979 15.5906 16.6479 14.7622 16.6479 13.723C16.6479 12.3475 16.9894 11.2043 17.6724 10.2935C18.3615 9.38258 19.2671 8.92714 20.3892 8.92714C20.8161 8.92714 21.1973 9.04635 21.5327 9.28477C21.8681 9.51707 22.0846 9.79828 22.1822 10.1284H22.2096C22.2279 9.95722 22.2737 9.60571 22.3468 9.07386H23.8653C23.5787 12.3016 23.4354 13.9461 23.4354 14.0072C23.4354 15.2177 23.7495 15.8229 24.3776 15.8229C24.9508 15.8229 25.4265 15.4866 25.8046 14.8142C26.1827 14.1356 26.3718 13.2584 26.3718 12.1824C26.3718 10.593 25.8595 9.29699 24.835 8.29442C23.8165 7.28574 22.4017 6.7814 20.5905 6.7814C18.8524 6.7814 17.4132 7.38966 16.2728 8.6062C15.1324 9.82273 14.5622 11.3449 14.5622 13.1728C14.5622 14.9762 15.1111 16.4311 16.2088 17.5376C17.3065 18.6441 18.7854 19.1974 20.6454 19.1974C22.109 19.1974 23.3622 18.9467 24.405 18.4455V19.8576C23.3378 20.31 22.0053 20.5362 20.4075 20.5362C18.1633 20.5362 16.3552 19.8637 14.983 18.5188C13.6109 17.1739 12.9248 15.4133 12.9248 13.237C12.9248 10.9995 13.6505 9.14416 15.1019 7.67087C16.5534 6.19758 18.4073 5.46094 20.6637 5.46094C22.7798 5.46094 24.5301 6.07837 25.9144 7.31325C27.3048 8.54812 28 10.159 28 12.1458C28 13.6007 27.6219 14.7958 26.8657 15.7312C26.1156 16.6604 25.1978 17.125 24.1123 17.125C22.7097 17.125 22.0053 16.4678 21.9992 15.1535ZM20.5448 10.2293C19.8739 10.2293 19.3312 10.5594 18.9165 11.2196C18.5079 11.8798 18.3036 12.7021 18.3036 13.6863C18.3036 14.3465 18.4408 14.8692 18.7152 15.2543C18.9958 15.6334 19.3678 15.8229 19.8312 15.8229C20.5021 15.8229 21.0326 15.4775 21.4229 14.7867C21.8132 14.0898 22.0084 13.1697 22.0084 12.0266C22.0084 10.8284 21.5205 10.2293 20.5448 10.2293Z" fill="url(#paint2_linear_1354_49)"/>
<defs>
<linearGradient id="paint0_linear_1354_49" x1="3.95156" y1="23.1032" x2="27.246" y2="23.1715" gradientUnits="userSpaceOnUse">
<stop stop-color="#60A5FA"/>
<stop offset="1" stop-color="#C084FC"/>
</linearGradient>
<linearGradient id="paint1_linear_1354_49" x1="1.45059" y1="14.6729" x2="18.0124" y2="14.631" gradientUnits="userSpaceOnUse">
<stop stop-color="#60A5FA"/>
<stop offset="1" stop-color="#C084FC"/>
</linearGradient>
<linearGradient id="paint2_linear_1354_49" x1="0.990238" y1="13.0404" x2="28.4607" y2="13.0404" gradientUnits="userSpaceOnUse">
<stop stop-color="#60A5FA"/>
<stop offset="1" stop-color="#C084FC"/>
</linearGradient>
</defs>
</svg>
