<svg width="320" height="320" viewBox="0 0 320 320" fill="none" xmlns="http://www.w3.org/2000/svg">
<rect width="320" height="320" rx="73" fill="#020618"/>
<path d="M149.333 229.667L257 229.982" stroke="url(#paint0_linear_1348_21)" stroke-width="21" stroke-linecap="round" stroke-linejoin="round"/>
<path d="M57 226.334L121 162.334L57 98.334" stroke="url(#paint1_linear_1348_21)" stroke-width="21" stroke-linecap="round" stroke-linejoin="round"/>
<path d="M215.233 165.153H214.869C211.374 175.616 204.529 180.847 194.335 180.847C187.83 180.847 182.587 178.414 178.607 173.547C174.626 168.633 172.636 162.039 172.636 153.766C172.636 142.818 175.354 133.718 180.791 126.467C186.277 119.217 193.485 115.591 202.417 115.591C205.816 115.591 208.85 116.54 211.519 118.438C214.189 120.287 215.913 122.526 216.689 125.153H216.908C217.053 123.791 217.417 120.993 218 116.759H230.087C227.806 142.453 226.665 155.543 226.665 156.029C226.665 165.664 229.165 170.482 234.165 170.482C238.728 170.482 242.515 167.805 245.524 162.453C248.534 157.051 250.039 150.068 250.039 141.504C250.039 128.852 245.961 118.535 237.806 110.555C229.699 102.526 218.437 98.5109 204.019 98.5109C190.184 98.5109 178.728 103.353 169.65 113.036C160.573 122.72 156.034 134.837 156.034 149.387C156.034 163.742 160.403 175.324 169.141 184.131C177.879 192.939 189.65 197.343 204.456 197.343C216.107 197.343 226.083 195.348 234.383 191.358V202.599C225.888 206.2 215.282 208 202.563 208C184.699 208 170.306 202.647 159.383 191.942C148.461 181.236 143 167.221 143 149.898C143 132.088 148.777 117.319 160.33 105.591C171.883 93.8637 186.641 88 204.602 88C221.447 88 235.379 92.9148 246.398 102.745C257.466 112.574 263 125.397 263 141.212C263 152.793 259.99 162.307 253.971 169.752C248 177.148 240.694 180.847 232.053 180.847C220.888 180.847 215.282 175.616 215.233 165.153ZM203.655 125.956C198.316 125.956 193.995 128.584 190.694 133.839C187.442 139.095 185.816 145.64 185.816 153.474C185.816 158.73 186.908 162.891 189.092 165.956C191.325 168.973 194.286 170.482 197.976 170.482C203.316 170.482 207.539 167.732 210.646 162.234C213.752 156.686 215.306 149.363 215.306 140.263C215.306 130.725 211.422 125.956 203.655 125.956Z" fill="url(#paint2_linear_1348_21)"/>
<defs>
<linearGradient id="paint0_linear_1348_21" x1="71.5743" y1="229.439" x2="257" y2="229.982" gradientUnits="userSpaceOnUse">
<stop stop-color="#60A5FA"/>
<stop offset="1" stop-color="#C084FC"/>
</linearGradient>
<linearGradient id="paint1_linear_1348_21" x1="51.6667" y1="162.334" x2="183.5" y2="162" gradientUnits="userSpaceOnUse">
<stop stop-color="#60A5FA"/>
<stop offset="1" stop-color="#C084FC"/>
</linearGradient>
<linearGradient id="paint2_linear_1348_21" x1="59" y1="148" x2="280" y2="148" gradientUnits="userSpaceOnUse">
<stop stop-color="#60A5FA"/>
<stop offset="1" stop-color="#C084FC"/>
</linearGradient>
</defs>
</svg>
